Coordinates
version=1
nRows=13
nColumns=34
inDegrees=yes

Units are S.I. units (second, meters, Newtons, ...)
If the header above contains a line with 'inDegrees', this indicates whether rotational values are in degrees (yes) or radians (no).

endheader
time	bJoint_0	bJoint_1	bJoint_2	bJoint_3	bJoint_4	bJoint_5	seatpos	slocangle	soarinout	sblpos	plocangle	poarinout	pblpos	hipangle	kneeangle	footangle	lbackangle	uarmleft_out	uarmleft_trn	uarmleft_up	se_inout	se_updown	handleleft_out	handleleft_trn	handleleft_up	uarmright_out	uarmright_trn	uarmright_up	pe_inout	pe_updown	handleright_out	handleright_trn	handleright_up
      0.02000000	      0.00000000	     -0.00000000	     -0.00000000	      0.00000000	      0.00000000	      0.00000000	     -0.65461774	     82.27546901	     17.59226320	    -17.24425374	     81.33077950	     15.86703458	     -9.83018416	     23.62785654	    144.76872250	     78.39657905	     10.68875029	    -56.38099824	    -80.16326299	    -97.04746492	      6.61327200	     -4.84111158	     -3.11018880	     47.72107909	     39.87708131	    -69.94077167	    -83.20998831	   -108.50051735	      3.94413874	     -4.41197056	      5.75945848	    -49.67131574	     43.60071284
      0.04000000	      0.00000000	     -0.00000000	     -0.00000000	     -0.00000000	      0.00000000	     -0.00000000	     -0.65359131	     82.18520950	     17.56057721	    -17.11038990	     81.24658563	     15.85062208	     -9.76543630	     23.67587669	    144.63939379	     78.31527048	     10.67314430	    -56.21804334	    -80.16956032	    -96.84217218	      6.62551911	     -4.52963793	     -3.14738841	     47.73540948	     40.17611736	    -69.95822640	    -83.21507791	   -108.50330908	      3.92078347	     -4.08185631	      5.79468115	    -49.71838006	     43.89675018
      0.06000000	      0.00000000	     -0.00000000	     -0.00000000	      0.00000000	     -0.00000000	     -0.00000000	     -0.65183223	     82.11491025	     17.56896058	    -17.14942522	     81.16316686	     15.82528693	     -9.66144855	     23.75858279	    144.41758126	     78.17616405	     10.73392033	    -56.15791192	    -79.95845462	    -96.53133212	      6.79999466	     -4.79653140	     -3.14386385	     47.68250905	     40.09527090	    -70.07932099	    -83.06164952	   -108.47169791	      4.03675287	     -4.06106900	      5.89073335	    -49.73834977	     44.07228184
      0.08000000	      0.00000000	      0.00000000	     -0.00000000	     -0.00000000	     -0.00000000	     -0.00000000	     -0.65052217	     82.02487482	     17.58662679	    -17.23104898	     81.06692850	     15.84451267	     -9.74664171	     23.82051091	    144.25224705	     78.07275796	     10.71160685	    -56.25630503	    -79.94823050	    -96.42852979	      6.69623776	     -4.84141608	     -3.07240749	     47.76381847	     40.11506323	    -70.21173856	    -82.99698027	   -108.32485013	      4.03807190	     -4.25872230	      5.90971187	    -49.79584093	     44.08044459
      0.10000000	      0.00000000	      0.00000000	     -0.00000000	     -0.00000000	     -0.00000000	      0.00000000	     -0.64962242	     81.94036536	     17.57070979	    -17.15139583	     80.97762725	     15.83389865	     -9.69813163	     23.86320609	    144.13862562	     78.00183171	     10.68007689	    -56.08398990	    -80.02418596	    -96.18356901	      6.56235050	     -4.61816659	     -3.00773464	     47.82306744	     40.28382757	    -70.28522806	    -83.00882863	   -108.29289659	      4.02057703	     -4.10443470	      5.95855638	    -49.84122035	     44.29651762
      0.12000000	      0.00000000	     -0.00000000	     -0.00000000	      0.00000000	     -0.00000000	      0.00000000	     -0.64774791	     81.84607089	     17.56636424	    -17.12384527	     80.88632725	     15.83464598	     -9.67673739	     23.95257544	    143.90172940	     77.85430484	     10.72168014	    -56.02976820	    -79.89013066	    -95.92883416	      6.62928592	     -4.66191408	     -2.98168863	     47.82203805	     40.33677465	    -70.39823409	    -82.90661195	   -108.19347405	      3.99321401	     -4.18181432	      5.93262657	    -49.91150037	     44.33027530
      0.14000000	      0.00000000	      0.00000000	     -0.00000000	      0.00000000	     -0.00000000	     -0.00000000	     -0.64713298	     81.76581354	     17.54264020	    -17.03793865	     80.81638423	     15.83292219	     -9.67140111	     23.98201760	    143.82396194	     77.80597954	     10.68813964	    -56.11092386	    -79.93034944	    -95.81834817	      6.60414749	     -4.71240154	     -3.03287584	     47.86036557	     40.44157745	    -70.46747100	    -82.92668344	   -108.10911164	      3.96356310	     -4.21451852	      5.95578226	    -49.94879616	     44.40456335
      0.16000000	      0.00000000	      0.00000000	     -0.00000000	     -0.00000000	     -0.00000000	      0.00000000	     -0.64562102	     81.67397322	     17.55428324	    -17.08444833	     80.73198907	     15.85995476	     -9.80275901	     24.05466209	    143.63263980	     77.68730189	     10.68770345	    -56.18185228	    -79.85818208	    -95.73332801	      6.59355445	     -4.66536615	     -3.00564216	     47.90940158	     40.54056655	    -70.53429768	    -82.84769466	   -108.02881842	      3.92522471	     -4.18697910	      5.91826810	    -50.02261434	     44.47313846
      0.18000000	      0.00000000	     -0.00000000	     -0.00000000	      0.00000000	     -0.00000000	      0.00000000	     -0.64458190	     81.60511474	     17.57700633	    -17.18112123	     80.63667482	     15.84275154	     -9.73656781	     24.10479700	    143.50105737	     77.60585437	     10.67087199	    -56.02626645	    -79.83789231	    -95.40167960	      6.52629288	     -4.75995973	     -2.90167551	     47.93641948	     40.47938451	    -70.68219954	    -82.83581149	   -107.97587368	      3.93179986	     -4.21512575	      5.98912096	    -50.06341324	     44.61421613
      0.20000000	      0.00000000	      0.00000000	     -0.00000000	     -0.00000000	     -0.00000000	      0.00000000	     -0.64281906	     81.50623200	     17.56728201	    -17.13934520	     80.55181910	     15.84529566	     -9.73884144	     24.19023506	    143.27765796	     77.46789301	     10.71270766	    -56.02770593	    -79.64891070	    -95.09574672	      6.72781852	     -5.02214460	     -2.96431172	     47.88384472	     40.48251932	    -70.78419290	    -82.71303433	   -107.87682598	      3.94994581	     -4.30109933	      5.99277586	    -50.11668420	     44.65667203
      0.22000000	      0.00000000	     -0.00000000	     -0.00000000	     -0.00000000	      0.00000000	     -0.00000000	     -0.64160375	     81.42022950	     17.56607867	    -17.13795171	     80.46232096	     15.85206598	     -9.78585335	     24.24940521	    143.12352425	     77.37292946	     10.69946100	    -55.84597231	    -79.63872922	    -94.86473903	      6.67851399	     -4.76557756	     -2.91068302	     47.91762538	     40.66892851	    -70.86415707	    -82.63824873	   -107.81376230	      4.00225707	     -4.24220967	      6.05803551	    -50.15249059	     44.82782285
      0.24000000	      0.00000000	      0.00000000	     -0.00000000	      0.00000000	      0.00000000	      0.00000000	     -0.64082962	     81.32541303	     17.55399656	    -17.05745750	     80.36766838	     15.84668121	     -9.75856555	     24.28723002	    143.02528254	     77.31251256	     10.65329928	    -55.93115841	    -79.67804057	    -94.74768059	      6.63375213	     -4.78436783	     -2.94662031	     47.97214020	     40.79057423	    -70.95153128	    -82.67870687	   -107.70486336	      3.95302081	     -4.26532842	      6.08831736	    -50.20215462	     44.93688918
      0.26000000	      0.00000000	     -0.00000000	     -0.00000000	     -0.00000000	      0.00000000	      0.00000000	     -0.63878316	     81.23691810	     17.56569188	    -17.13205168	     80.27335294	     15.85027019	     -9.76899780	     24.38763185	    142.76538417	     77.15301602	     10.70611835	    -55.86163037	    -79.55230041	    -94.48857375	      6.61166748	     -4.84341309	     -2.82750596	     47.99824570	     40.75282125	    -71.06315915	    -82.55956178	   -107.61268368	      3.92045591	     -4.32102554	      6.05150358	    -50.27935397	     44.97239068
